<?xml version="1.0" encoding="UTF-8"?>
<svg width="1051px" height="241px" viewBox="0 0 1051 241" version="1.1" xmlns="http://www.w3.org/2000/svg" xmlns:xlink="http://www.w3.org/1999/xlink">
    <title>logo</title>
    <defs>
        <path d="M45.487067,82.7358044 L97.487067,82.7358044 C108.532762,82.7358044 117.487067,91.6901094 117.487067,102.735804 L117.487067,103.735804 C117.487067,114.781499 108.532762,123.735804 97.487067,123.735804 L35.487067,123.735804 L35.487067,123.735804 L35.487067,92.7358044 C35.487067,87.2129569 39.9642195,82.7358044 45.487067,82.7358044 Z" id="path-1"></path>
        <filter x="-11.0%" y="-12.2%" width="117.1%" height="134.1%" filterUnits="objectBoundingBox" id="filter-2">
            <feOffset dx="-2" dy="2" in="SourceAlpha" result="shadowOffsetOuter1"></feOffset>
            <feGaussianBlur stdDeviation="2" in="shadowOffsetOuter1" result="shadowBlurOuter1"></feGaussianBlur>
            <feColorMatrix values="0 0 0 0 0   0 0 0 0 0   0 0 0 0 0  0 0 0 0.249751591 0" type="matrix" in="shadowBlurOuter1"></feColorMatrix>
        </filter>
        <path d="M7.36143571,35.3614357 L94.3614357,35.3614357 C105.407131,35.3614357 114.361436,44.3157407 114.361436,55.3614357 L114.361436,56.3614357 C114.361436,67.4071307 105.407131,76.3614357 94.3614357,76.3614357 L-2.63856429,76.3614357 L-2.63856429,76.3614357 L-2.63856429,45.3614357 C-2.63856429,39.8385882 1.83858822,35.3614357 7.36143571,35.3614357 Z" id="path-3"></path>
        <filter x="-7.7%" y="-12.2%" width="112.0%" height="134.1%" filterUnits="objectBoundingBox" id="filter-4">
            <feOffset dx="-2" dy="2" in="SourceAlpha" result="shadowOffsetOuter1"></feOffset>
            <feGaussianBlur stdDeviation="2" in="shadowOffsetOuter1" result="shadowBlurOuter1"></feGaussianBlur>
            <feColorMatrix values="0 0 0 0 0   0 0 0 0 0   0 0 0 0 0  0 0 0 0.249751591 0" type="matrix" in="shadowBlurOuter1"></feColorMatrix>
        </filter>
    </defs>
    <g id="logo" stroke="none" stroke-width="1" fill="none" fill-rule="evenodd">
        <text id="FluxBuilder" font-family="Manrope-ExtraBold, Manrope" font-size="153" font-weight="700" letter-spacing="-4" fill="#000000">
            <tspan x="240" y="176">FluxBuilder</tspan>
        </text>
        <g id="Group-2" transform="translate(5.000000, 2.000000)">
            <path d="M200.62331,185.044691 L115.261514,234.32881 C109.093524,237.890397 101.495251,237.890397 95.327261,234.32881 L9.96712671,185.044691 C3.80079765,181.483104 0,174.904801 0,167.781627 L0,69.2150502 C0,62.0935382 3.80079765,55.5135734 9.96712671,51.953648 L95.327261,2.67118996 C101.495251,-0.890396652 109.093524,-0.890396652 115.261514,2.67118996 L200.62331,51.953648 C206.7913,55.5135734 210.590437,62.0935382 210.590437,69.2150502 L210.590437,167.781627 C210.590437,174.904801 206.7913,181.483104 200.62331,185.044691 L200.62331,185.044691 Z" id="Stroke-219" fill-opacity="0.2" fill="#9BBDFE"></path>
            <g id="Group" transform="translate(35.000000, 28.000000)">
                <path d="M49.487067,111.735804 L97.487067,111.735804 C108.532762,111.735804 117.487067,120.690109 117.487067,131.735804 L117.487067,132.735804 C117.487067,143.781499 108.532762,152.735804 97.487067,152.735804 L35.487067,152.735804 L35.487067,152.735804 L35.487067,125.735804 C35.487067,118.003818 41.7550805,111.735804 49.487067,111.735804 Z" id="Rectangle" fill="#9BBDFE" transform="translate(76.487067, 132.235804) scale(1, -1) rotate(-45.000000) translate(-76.487067, -132.235804) "></path>
                <g id="Rectangle" transform="translate(76.487067, 103.235804) rotate(-45.000000) translate(-76.487067, -103.235804) ">
                    <use fill="black" fill-opacity="1" filter="url(#filter-2)" xlink:href="#path-1"></use>
                    <use fill="#246DFD" fill-rule="evenodd" xlink:href="#path-1"></use>
                </g>
                <g id="Rectangle" transform="translate(55.861436, 55.861436) rotate(-45.000000) translate(-55.861436, -55.861436) ">
                    <use fill="black" fill-opacity="1" filter="url(#filter-4)" xlink:href="#path-3"></use>
                    <use fill="#246DFD" fill-rule="evenodd" xlink:href="#path-3"></use>
                </g>
            </g>
        </g>
    </g>
</svg>